<?xml version="1.0" encoding="UTF-8"?>
<svg id="Layer_4" data-name="Layer 4" xmlns="http://www.w3.org/2000/svg" viewBox="0 0 716.69 547.18">
  <defs>
    <style>
      .cls-1 {
        font-family: MyriadPro-Regular, 'Myriad Pro';
        font-size: 12px;
      }

      .cls-1, .cls-2, .cls-3 {
        fill: none;
      }

      .cls-2, .cls-3 {
        stroke: #fff;
        stroke-miterlimit: 10;
      }

      .cls-3 {
        stroke-width: 2px;
      }
    </style>
  </defs>
  <polygon class="cls-3" points="289.6 7.77 486.38 121.44 613.28 381.57 613.28 413.83 418.06 526.22 93.99 339.25 93.99 120.67 289.6 7.77"/>
  <path class="cls-3" d="M291.54,233.77L93.99,120.67l197.55,113.1Z"/>
  <polyline class="cls-3" points="486.38 121.44 291.54 233.77 418.25 493.89 418.06 526.22"/>
  <line class="cls-3" x1="418.25" y1="493.89" x2="613.28" y2="381.57"/>
  <path class="cls-2" d="M365.99,305.57c.29,0,7.23-2.28,7.23-2.19,9.48-2.77,13.74,13.23,4.13,16.39l-7.74,2.06c-9.03-.45-10.58-13.35-3.61-16.26Z"/>
  <path class="cls-2" d="M465.86,374.15c-3.05-.92-16.53-5.34-24.52-19.35-9.69-16.99-3.34-34.11-2.45-36.39l-7.1-5.29c-.97,2.57-9.76,27.19,5.03,49.16,9.85,14.64,24.41,19.55,29.03,20.9v-9.03Z"/>
  <path class="cls-2" d="M502.51,361.64c1.19-3.08,8.11-21.94-1.78-42.27-9.92-20.4-29.13-26.58-32.29-27.53v9.42c2.31.76,20.68,7.13,27.48,26.32,4.97,14.04.68,26.27-.65,29.68l7.23,4.39Z"/>
  <path class="cls-2" d="M488.19,351.44c.85-2.38,3.99-11.96-.39-22.71-5.32-13.06-17.49-17.43-19.35-18.06l-.65,9.03c1.31.45,8.85,3.17,12.65,11.35,3.59,7.74,1.28,14.83.77,16.26l6.97,4.13Z"/>
  <path class="cls-2" d="M463.02,329.25c3.85-1.94,9.27.96,11.23,5.16,1.91,4.1.84,10.12-3.23,11.87-3.73,1.61-8.26-1.12-10.22-4.4-2.45-4.1-1.81-10.6,2.22-12.63Z"/>
  <path class="cls-2" d="M453.22,327.7c-.43,1.21-3.52,10.44,1.94,19.06,3.79,5.99,9.5,8.19,11.35,8.81l-.65,9.16c-2.31-.79-12.18-4.45-17.94-15.1-6.54-12.1-2.73-23.87-2.06-25.81l7.35,3.87Z"/>
  <text class="cls-1" transform="translate(435.3 460.12) rotate(-29.97)"><tspan x="0" y="0">L</tspan></text>
  <text class="cls-1" transform="translate(439.29 457.81) rotate(-29.97)"><tspan x="0" y="0">T</tspan></text>
  <text class="cls-1" transform="translate(444.11 455.03) rotate(-29.97)"><tspan x="0" y="0">x</tspan></text>
  <text class="cls-1" transform="translate(448.92 452.26) rotate(-29.97)"><tspan x="0" y="0">2</tspan></text>
  <text class="cls-1" transform="translate(454.26 449.18) rotate(-29.97)"><tspan x="0" y="0">A</tspan></text>
  <polygon class="cls-2" points="408.57 437.73 422.75 467.35 437.54 458.82 435.67 455.44 424.31 461.64 411.54 436.09 408.57 437.73"/>
  <polygon class="cls-2" points="422.51 429.64 441.09 418.93 442.77 422.41 435.15 426.54 447.1 452.47 444.15 454.41 431.8 428.35 424.31 432.73 422.51 429.64"/>
  <polygon class="cls-2" points="447.1 426.67 456.57 432.73 456.57 447.31 459.99 445.88 459.99 434.93 468.44 441 472.04 438.93 460.57 431.06 460.96 417.64 457.73 419.57 457.6 428.86 450.12 423.83 447.1 426.67"/>
  <path class="cls-2" d="M476.56,431.31c.16-1.29.43-3.28.92-5.68,1-4.96,1.78-6.23,2.06-9.55.26-2.97.45-5.13-.6-7.48-1.47-3.29-5.31-6.91-9.46-6.19-3.32.57-5.11,3.63-5.55,4.39-2.44,4.18-.9,8.6-.65,9.29l3.23-1.03c-.94-5.03.79-8.91,3.1-9.55,2.06-.57,4.61,1.46,5.84,3.48,1.97,3.24.98,7.2-.28,12.26-1.29,5.17-2.58,6.56-2.47,10.32.08,2.64.81,4.77,1.41,6.16l14.93-8.61-1.84-3.74-10.65,5.94Z"/>
  <polygon class="cls-2" points="490.64 427.7 485.6 393.18 488.64 391.06 512.85 415.39 509.22 417.49 502.31 410.28 492.7 415.89 494.06 425.77 490.64 427.7"/>
  <polygon class="cls-2" points="491.48 412.22 499.99 407.64 489.6 397.44 491.48 412.22"/>
</svg>