<?xml version="1.0" encoding="UTF-8"?>
<svg id="Layer_3" data-name="Layer 3" xmlns="http://www.w3.org/2000/svg" viewBox="0 0 365.41 152.59">
  <defs>
    <style>
      .cls-1, .cls-2, .cls-3 {
        fill: #fff;
      }

      .cls-4 {
        letter-spacing: -.07em;
      }

      .cls-2 {
        font-size: 34px;
      }

      .cls-2, .cls-3 {
        font-family: Arial-BoldMT, Arial;
        font-weight: 700;
      }

      .cls-3 {
        font-size: 44px;
      }
    </style>
  </defs>
  <polygon class="cls-1" points="0 137.61 0 15.61 15.23 0 94.06 0 110.45 15.35 110.45 75.87 94.45 90.45 56.77 90.71 46.84 80.13 46.58 56.26 56.39 46.06 88.65 46.06 88.26 32.77 77.68 21.68 33.03 21.29 23.1 30.71 22.97 102.97 33.94 114.32 100.77 114.71 110.45 105.03 110.45 137.61 0 137.61"/>
  <text class="cls-3" transform="translate(128.26 42.22)"><tspan x="0" y="0">Physical</tspan></text>
  <text class="cls-2" transform="translate(126.13 137.02)"><tspan x="0" y="0">MAKERS</tspan><tspan class="cls-4" x="147.34" y="0">P</tspan><tspan x="167.49" y="0">ACE</tspan></text>
  <text class="cls-3" transform="translate(125.4 88.03)"><tspan x="0" y="0">Computing</tspan></text>
</svg>